<svg xmlns="http://www.w3.org/2000/svg" version="1.1" xmlns:xlink="http://www.w3.org/1999/xlink" xmlns:svgjs="http://svgjs.com/svgjs" width="1920" height="1080" preserveAspectRatio="none" viewBox="0 0 1920 1080"><g mask="url(&quot;#SvgjsMask6045&quot;)" fill="none"><rect width="1920" height="1080" x="0" y="0" fill="url(#SvgjsLinearGradient6046)"></rect><path d="M38.55 -41.93L103.5 -4.43L103.5 70.57L38.55 108.07L-26.4 70.57L-26.4 -4.43zM103.5 295.57L168.46 333.07L168.46 408.07L103.5 445.57L38.55 408.07L38.55 333.07zM38.55 858.07L103.5 895.57L103.5 970.57L38.55 1008.07L-26.4 970.57L-26.4 895.57zM168.46 -41.93L233.41 -4.43L233.41 70.57L168.46 108.07L103.5 70.57L103.5 -4.43zM168.46 408.07L233.41 445.57L233.41 520.57L168.46 558.07L103.5 520.57L103.5 445.57zM168.46 858.07L233.41 895.57L233.41 970.57L168.46 1008.07L103.5 970.57L103.5 895.57zM298.37 408.07L363.32 445.57L363.32 520.57L298.37 558.07L233.41 520.57L233.41 445.57zM298.37 633.07L363.32 670.57L363.32 745.57L298.37 783.07L233.41 745.57L233.41 670.57zM428.27 633.07L493.23 670.57L493.23 745.57L428.27 783.07L363.32 745.57L363.32 670.57zM558.18 408.07L623.13 445.57L623.13 520.57L558.18 558.07L493.23 520.57L493.23 445.57zM753.04 70.57L818 108.07L818 183.07L753.04 220.57L688.09 183.07L688.09 108.07zM688.09 1083.07L753.04 1120.57L753.04 1195.57L688.09 1233.07L623.13 1195.57L623.13 1120.57zM817.99 858.07L882.95 895.57L882.95 970.57L817.99 1008.07L753.04 970.57L753.04 895.57zM1012.86 520.57L1077.81 558.07L1077.81 633.07L1012.86 670.57L947.9 633.07L947.9 558.07zM1012.86 970.57L1077.81 1008.07L1077.81 1083.07L1012.86 1120.57L947.9 1083.07L947.9 1008.07zM1272.67 295.57L1337.62 333.07L1337.62 408.07L1272.67 445.57L1207.72 408.07L1207.72 333.07zM1207.72 408.07L1272.67 445.57L1272.67 520.57L1207.72 558.07L1142.76 520.57L1142.76 445.57zM1402.58 70.57L1467.53 108.07L1467.53 183.07L1402.58 220.57L1337.63 183.07L1337.63 108.07zM1467.53 -41.93L1532.49 -4.43L1532.49 70.57L1467.53 108.07L1402.58 70.57L1402.58 -4.43zM1532.49 295.57L1597.44 333.07L1597.44 408.07L1532.49 445.57L1467.53 408.07L1467.53 333.07zM1467.53 1083.07L1532.49 1120.57L1532.49 1195.57L1467.53 1233.07L1402.58 1195.57L1402.58 1120.57zM1597.44 408.07L1662.39 445.57L1662.39 520.57L1597.44 558.07L1532.49 520.57L1532.49 445.57zM1662.39 745.57L1727.35 783.07L1727.35 858.07L1662.39 895.57L1597.44 858.07L1597.44 783.07zM1792.3 745.57L1857.25 783.07L1857.25 858.07L1792.3 895.57L1727.35 858.07L1727.35 783.07zM1857.25 858.07L1922.21 895.57L1922.21 970.57L1857.25 1008.07L1792.3 970.57L1792.3 895.57zM1857.25 1083.07L1922.21 1120.57L1922.21 1195.57L1857.25 1233.07L1792.3 1195.57L1792.3 1120.57z" stroke="url(#SvgjsLinearGradient6047)" stroke-width="2"></path><path d="M31.05 -41.93 a7.5 7.5 0 1 0 15 0 a7.5 7.5 0 1 0 -15 0zM96 -4.43 a7.5 7.5 0 1 0 15 0 a7.5 7.5 0 1 0 -15 0zM96 70.57 a7.5 7.5 0 1 0 15 0 a7.5 7.5 0 1 0 -15 0zM31.05 108.07 a7.5 7.5 0 1 0 15 0 a7.5 7.5 0 1 0 -15 0zM-33.9 70.57 a7.5 7.5 0 1 0 15 0 a7.5 7.5 0 1 0 -15 0zM-33.9 -4.43 a7.5 7.5 0 1 0 15 0 a7.5 7.5 0 1 0 -15 0zM96 295.57 a7.5 7.5 0 1 0 15 0 a7.5 7.5 0 1 0 -15 0zM160.96 333.07 a7.5 7.5 0 1 0 15 0 a7.5 7.5 0 1 0 -15 0zM160.96 408.07 a7.5 7.5 0 1 0 15 0 a7.5 7.5 0 1 0 -15 0zM96 445.57 a7.5 7.5 0 1 0 15 0 a7.5 7.5 0 1 0 -15 0zM31.05 408.07 a7.5 7.5 0 1 0 15 0 a7.5 7.5 0 1 0 -15 0zM31.05 333.07 a7.5 7.5 0 1 0 15 0 a7.5 7.5 0 1 0 -15 0zM31.05 858.07 a7.5 7.5 0 1 0 15 0 a7.5 7.5 0 1 0 -15 0zM96 895.57 a7.5 7.5 0 1 0 15 0 a7.5 7.5 0 1 0 -15 0zM96 970.57 a7.5 7.5 0 1 0 15 0 a7.5 7.5 0 1 0 -15 0zM31.05 1008.07 a7.5 7.5 0 1 0 15 0 a7.5 7.5 0 1 0 -15 0zM-33.9 970.57 a7.5 7.5 0 1 0 15 0 a7.5 7.5 0 1 0 -15 0zM-33.9 895.57 a7.5 7.5 0 1 0 15 0 a7.5 7.5 0 1 0 -15 0zM160.96 -41.93 a7.5 7.5 0 1 0 15 0 a7.5 7.5 0 1 0 -15 0zM225.91 -4.43 a7.5 7.5 0 1 0 15 0 a7.5 7.5 0 1 0 -15 0zM225.91 70.57 a7.5 7.5 0 1 0 15 0 a7.5 7.5 0 1 0 -15 0zM160.96 108.07 a7.5 7.5 0 1 0 15 0 a7.5 7.5 0 1 0 -15 0zM225.91 445.57 a7.5 7.5 0 1 0 15 0 a7.5 7.5 0 1 0 -15 0zM225.91 520.57 a7.5 7.5 0 1 0 15 0 a7.5 7.5 0 1 0 -15 0zM160.96 558.07 a7.5 7.5 0 1 0 15 0 a7.5 7.5 0 1 0 -15 0zM96 520.57 a7.5 7.5 0 1 0 15 0 a7.5 7.5 0 1 0 -15 0zM160.96 858.07 a7.5 7.5 0 1 0 15 0 a7.5 7.5 0 1 0 -15 0zM225.91 895.57 a7.5 7.5 0 1 0 15 0 a7.5 7.5 0 1 0 -15 0zM225.91 970.57 a7.5 7.5 0 1 0 15 0 a7.5 7.5 0 1 0 -15 0zM160.96 1008.07 a7.5 7.5 0 1 0 15 0 a7.5 7.5 0 1 0 -15 0zM290.87 408.07 a7.5 7.5 0 1 0 15 0 a7.5 7.5 0 1 0 -15 0zM355.82 445.57 a7.5 7.5 0 1 0 15 0 a7.5 7.5 0 1 0 -15 0zM355.82 520.57 a7.5 7.5 0 1 0 15 0 a7.5 7.5 0 1 0 -15 0zM290.87 558.07 a7.5 7.5 0 1 0 15 0 a7.5 7.5 0 1 0 -15 0zM290.87 633.07 a7.5 7.5 0 1 0 15 0 a7.5 7.5 0 1 0 -15 0zM355.82 670.57 a7.5 7.5 0 1 0 15 0 a7.5 7.5 0 1 0 -15 0zM355.82 745.57 a7.5 7.5 0 1 0 15 0 a7.5 7.5 0 1 0 -15 0zM290.87 783.07 a7.5 7.5 0 1 0 15 0 a7.5 7.5 0 1 0 -15 0zM225.91 745.57 a7.5 7.5 0 1 0 15 0 a7.5 7.5 0 1 0 -15 0zM225.91 670.57 a7.5 7.5 0 1 0 15 0 a7.5 7.5 0 1 0 -15 0zM420.77 633.07 a7.5 7.5 0 1 0 15 0 a7.5 7.5 0 1 0 -15 0zM485.73 670.57 a7.5 7.5 0 1 0 15 0 a7.5 7.5 0 1 0 -15 0zM485.73 745.57 a7.5 7.5 0 1 0 15 0 a7.5 7.5 0 1 0 -15 0zM420.77 783.07 a7.5 7.5 0 1 0 15 0 a7.5 7.5 0 1 0 -15 0zM550.68 408.07 a7.5 7.5 0 1 0 15 0 a7.5 7.5 0 1 0 -15 0zM615.63 445.57 a7.5 7.5 0 1 0 15 0 a7.5 7.5 0 1 0 -15 0zM615.63 520.57 a7.5 7.5 0 1 0 15 0 a7.5 7.5 0 1 0 -15 0zM550.68 558.07 a7.5 7.5 0 1 0 15 0 a7.5 7.5 0 1 0 -15 0zM485.73 520.57 a7.5 7.5 0 1 0 15 0 a7.5 7.5 0 1 0 -15 0zM485.73 445.57 a7.5 7.5 0 1 0 15 0 a7.5 7.5 0 1 0 -15 0zM745.54 70.57 a7.5 7.5 0 1 0 15 0 a7.5 7.5 0 1 0 -15 0zM810.5 108.07 a7.5 7.5 0 1 0 15 0 a7.5 7.5 0 1 0 -15 0zM810.5 183.07 a7.5 7.5 0 1 0 15 0 a7.5 7.5 0 1 0 -15 0zM745.54 220.57 a7.5 7.5 0 1 0 15 0 a7.5 7.5 0 1 0 -15 0zM680.59 183.07 a7.5 7.5 0 1 0 15 0 a7.5 7.5 0 1 0 -15 0zM680.59 108.07 a7.5 7.5 0 1 0 15 0 a7.5 7.5 0 1 0 -15 0zM680.59 1083.07 a7.5 7.5 0 1 0 15 0 a7.5 7.5 0 1 0 -15 0zM745.54 1120.57 a7.5 7.5 0 1 0 15 0 a7.5 7.5 0 1 0 -15 0zM745.54 1195.57 a7.5 7.5 0 1 0 15 0 a7.5 7.5 0 1 0 -15 0zM680.59 1233.07 a7.5 7.5 0 1 0 15 0 a7.5 7.5 0 1 0 -15 0zM615.63 1195.57 a7.5 7.5 0 1 0 15 0 a7.5 7.5 0 1 0 -15 0zM615.63 1120.57 a7.5 7.5 0 1 0 15 0 a7.5 7.5 0 1 0 -15 0zM810.49 858.07 a7.5 7.5 0 1 0 15 0 a7.5 7.5 0 1 0 -15 0zM875.45 895.57 a7.5 7.5 0 1 0 15 0 a7.5 7.5 0 1 0 -15 0zM875.45 970.57 a7.5 7.5 0 1 0 15 0 a7.5 7.5 0 1 0 -15 0zM810.49 1008.07 a7.5 7.5 0 1 0 15 0 a7.5 7.5 0 1 0 -15 0zM745.54 970.57 a7.5 7.5 0 1 0 15 0 a7.5 7.5 0 1 0 -15 0zM745.54 895.57 a7.5 7.5 0 1 0 15 0 a7.5 7.5 0 1 0 -15 0zM1005.36 520.57 a7.5 7.5 0 1 0 15 0 a7.5 7.5 0 1 0 -15 0zM1070.31 558.07 a7.5 7.5 0 1 0 15 0 a7.5 7.5 0 1 0 -15 0zM1070.31 633.07 a7.5 7.5 0 1 0 15 0 a7.5 7.5 0 1 0 -15 0zM1005.36 670.57 a7.5 7.5 0 1 0 15 0 a7.5 7.5 0 1 0 -15 0zM940.4 633.07 a7.5 7.5 0 1 0 15 0 a7.5 7.5 0 1 0 -15 0zM940.4 558.07 a7.5 7.5 0 1 0 15 0 a7.5 7.5 0 1 0 -15 0zM1005.36 970.57 a7.5 7.5 0 1 0 15 0 a7.5 7.5 0 1 0 -15 0zM1070.31 1008.07 a7.5 7.5 0 1 0 15 0 a7.5 7.5 0 1 0 -15 0zM1070.31 1083.07 a7.5 7.5 0 1 0 15 0 a7.5 7.5 0 1 0 -15 0zM1005.36 1120.57 a7.5 7.5 0 1 0 15 0 a7.5 7.5 0 1 0 -15 0zM940.4 1083.07 a7.5 7.5 0 1 0 15 0 a7.5 7.5 0 1 0 -15 0zM940.4 1008.07 a7.5 7.5 0 1 0 15 0 a7.5 7.5 0 1 0 -15 0zM1265.17 295.57 a7.5 7.5 0 1 0 15 0 a7.5 7.5 0 1 0 -15 0zM1330.12 333.07 a7.5 7.5 0 1 0 15 0 a7.5 7.5 0 1 0 -15 0zM1330.12 408.07 a7.5 7.5 0 1 0 15 0 a7.5 7.5 0 1 0 -15 0zM1265.17 445.57 a7.5 7.5 0 1 0 15 0 a7.5 7.5 0 1 0 -15 0zM1200.22 408.07 a7.5 7.5 0 1 0 15 0 a7.5 7.5 0 1 0 -15 0zM1200.22 333.07 a7.5 7.5 0 1 0 15 0 a7.5 7.5 0 1 0 -15 0zM1265.17 520.57 a7.5 7.5 0 1 0 15 0 a7.5 7.5 0 1 0 -15 0zM1200.22 558.07 a7.5 7.5 0 1 0 15 0 a7.5 7.5 0 1 0 -15 0zM1135.26 520.57 a7.5 7.5 0 1 0 15 0 a7.5 7.5 0 1 0 -15 0zM1135.26 445.57 a7.5 7.5 0 1 0 15 0 a7.5 7.5 0 1 0 -15 0zM1395.08 70.57 a7.5 7.5 0 1 0 15 0 a7.5 7.5 0 1 0 -15 0zM1460.03 108.07 a7.5 7.5 0 1 0 15 0 a7.5 7.5 0 1 0 -15 0zM1460.03 183.07 a7.5 7.5 0 1 0 15 0 a7.5 7.5 0 1 0 -15 0zM1395.08 220.57 a7.5 7.5 0 1 0 15 0 a7.5 7.5 0 1 0 -15 0zM1330.13 183.07 a7.5 7.5 0 1 0 15 0 a7.5 7.5 0 1 0 -15 0zM1330.13 108.07 a7.5 7.5 0 1 0 15 0 a7.5 7.5 0 1 0 -15 0zM1460.03 -41.93 a7.5 7.5 0 1 0 15 0 a7.5 7.5 0 1 0 -15 0zM1524.99 -4.43 a7.5 7.5 0 1 0 15 0 a7.5 7.5 0 1 0 -15 0zM1524.99 70.57 a7.5 7.5 0 1 0 15 0 a7.5 7.5 0 1 0 -15 0zM1395.08 -4.43 a7.5 7.5 0 1 0 15 0 a7.5 7.5 0 1 0 -15 0zM1524.99 295.57 a7.5 7.5 0 1 0 15 0 a7.5 7.5 0 1 0 -15 0zM1589.94 333.07 a7.5 7.5 0 1 0 15 0 a7.5 7.5 0 1 0 -15 0zM1589.94 408.07 a7.5 7.5 0 1 0 15 0 a7.5 7.5 0 1 0 -15 0zM1524.99 445.57 a7.5 7.5 0 1 0 15 0 a7.5 7.5 0 1 0 -15 0zM1460.03 408.07 a7.5 7.5 0 1 0 15 0 a7.5 7.5 0 1 0 -15 0zM1460.03 333.07 a7.5 7.5 0 1 0 15 0 a7.5 7.5 0 1 0 -15 0zM1460.03 1083.07 a7.5 7.5 0 1 0 15 0 a7.5 7.5 0 1 0 -15 0zM1524.99 1120.57 a7.5 7.5 0 1 0 15 0 a7.5 7.5 0 1 0 -15 0zM1524.99 1195.57 a7.5 7.5 0 1 0 15 0 a7.5 7.5 0 1 0 -15 0zM1460.03 1233.07 a7.5 7.5 0 1 0 15 0 a7.5 7.5 0 1 0 -15 0zM1395.08 1195.57 a7.5 7.5 0 1 0 15 0 a7.5 7.5 0 1 0 -15 0zM1395.08 1120.57 a7.5 7.5 0 1 0 15 0 a7.5 7.5 0 1 0 -15 0zM1654.89 445.57 a7.5 7.5 0 1 0 15 0 a7.5 7.5 0 1 0 -15 0zM1654.89 520.57 a7.5 7.5 0 1 0 15 0 a7.5 7.5 0 1 0 -15 0zM1589.94 558.07 a7.5 7.5 0 1 0 15 0 a7.5 7.5 0 1 0 -15 0zM1524.99 520.57 a7.5 7.5 0 1 0 15 0 a7.5 7.5 0 1 0 -15 0zM1654.89 745.57 a7.5 7.5 0 1 0 15 0 a7.5 7.5 0 1 0 -15 0zM1719.85 783.07 a7.5 7.5 0 1 0 15 0 a7.5 7.5 0 1 0 -15 0zM1719.85 858.07 a7.5 7.5 0 1 0 15 0 a7.5 7.5 0 1 0 -15 0zM1654.89 895.57 a7.5 7.5 0 1 0 15 0 a7.5 7.5 0 1 0 -15 0zM1589.94 858.07 a7.5 7.5 0 1 0 15 0 a7.5 7.5 0 1 0 -15 0zM1589.94 783.07 a7.5 7.5 0 1 0 15 0 a7.5 7.5 0 1 0 -15 0zM1784.8 745.57 a7.5 7.5 0 1 0 15 0 a7.5 7.5 0 1 0 -15 0zM1849.75 783.07 a7.5 7.5 0 1 0 15 0 a7.5 7.5 0 1 0 -15 0zM1849.75 858.07 a7.5 7.5 0 1 0 15 0 a7.5 7.5 0 1 0 -15 0zM1784.8 895.57 a7.5 7.5 0 1 0 15 0 a7.5 7.5 0 1 0 -15 0zM1914.71 895.57 a7.5 7.5 0 1 0 15 0 a7.5 7.5 0 1 0 -15 0zM1914.71 970.57 a7.5 7.5 0 1 0 15 0 a7.5 7.5 0 1 0 -15 0zM1849.75 1008.07 a7.5 7.5 0 1 0 15 0 a7.5 7.5 0 1 0 -15 0zM1784.8 970.57 a7.5 7.5 0 1 0 15 0 a7.5 7.5 0 1 0 -15 0zM1849.75 1083.07 a7.5 7.5 0 1 0 15 0 a7.5 7.5 0 1 0 -15 0zM1914.71 1120.57 a7.5 7.5 0 1 0 15 0 a7.5 7.5 0 1 0 -15 0zM1914.71 1195.57 a7.5 7.5 0 1 0 15 0 a7.5 7.5 0 1 0 -15 0zM1849.75 1233.07 a7.5 7.5 0 1 0 15 0 a7.5 7.5 0 1 0 -15 0zM1784.8 1195.57 a7.5 7.5 0 1 0 15 0 a7.5 7.5 0 1 0 -15 0zM1784.8 1120.57 a7.5 7.5 0 1 0 15 0 a7.5 7.5 0 1 0 -15 0z" fill="url(#SvgjsLinearGradient6047)"></path><path d="M20.6 -44.29L63.9 -19.29L63.9 30.71L20.6 55.71L-22.7 30.71L-22.7 -19.29zM63.9 30.71L107.21 55.71L107.21 105.71L63.9 130.71L20.6 105.71L20.6 55.71zM20.6 105.71L63.9 130.71L63.9 180.71L20.6 205.71L-22.7 180.71L-22.7 130.71zM63.9 180.71L107.21 205.71L107.21 255.71L63.9 280.71L20.6 255.71L20.6 205.71zM20.6 255.71L63.9 280.71L63.9 330.71L20.6 355.71L-22.7 330.71L-22.7 280.71zM63.9 330.71L107.21 355.71L107.21 405.71L63.9 430.71L20.6 405.71L20.6 355.71zM63.9 630.71L107.21 655.71L107.21 705.71L63.9 730.71L20.6 705.71L20.6 655.71zM20.6 705.71L63.9 730.71L63.9 780.71L20.6 805.71L-22.7 780.71L-22.7 730.71zM63.9 780.71L107.21 805.71L107.21 855.71L63.9 880.71L20.6 855.71L20.6 805.71zM150.51 30.71L193.81 55.71L193.81 105.71L150.51 130.71L107.21 105.71L107.21 55.71zM150.51 330.71L193.81 355.71L193.81 405.71L150.51 430.71L107.21 405.71L107.21 355.71zM150.51 480.71L193.81 505.71L193.81 555.71L150.51 580.71L107.21 555.71L107.21 505.71zM107.21 555.71L150.51 580.71L150.51 630.71L107.21 655.71L63.9 630.71L63.9 580.71zM107.21 705.71L150.51 730.71L150.51 780.71L107.21 805.71L63.9 780.71L63.9 730.71zM193.81 -44.29L237.11 -19.29L237.11 30.71L193.81 55.71L150.51 30.71L150.51 -19.29zM193.81 105.71L237.11 130.71L237.11 180.71L193.81 205.71L150.51 180.71L150.51 130.71zM193.81 255.71L237.11 280.71L237.11 330.71L193.81 355.71L150.51 330.71L150.51 280.71zM193.81 405.71L237.11 430.71L237.11 480.71L193.81 505.71L150.51 480.71L150.51 430.71zM193.81 555.71L237.11 580.71L237.11 630.71L193.81 655.71L150.51 630.71L150.51 580.71zM237.11 630.71L280.42 655.71L280.42 705.71L237.11 730.71L193.81 705.71L193.81 655.71zM237.11 780.71L280.42 805.71L280.42 855.71L237.11 880.71L193.81 855.71L193.81 805.71zM193.81 855.71L237.11 880.71L237.11 930.71L193.81 955.71L150.51 930.71L150.51 880.71zM280.42 -44.29L323.72 -19.29L323.72 30.71L280.42 55.71L237.11 30.71L237.11 -19.29zM280.42 105.71L323.72 130.71L323.72 180.71L280.42 205.71L237.11 180.71L237.11 130.71zM323.72 180.71L367.02 205.71L367.02 255.71L323.72 280.71L280.42 255.71L280.42 205.71zM280.42 255.71L323.72 280.71L323.72 330.71L280.42 355.71L237.11 330.71L237.11 280.71zM323.72 630.71L367.02 655.71L367.02 705.71L323.72 730.71L280.42 705.71L280.42 655.71zM280.42 855.71L323.72 880.71L323.72 930.71L280.42 955.71L237.11 930.71L237.11 880.71zM323.72 930.71L367.02 955.71L367.02 1005.71L323.72 1030.71L280.42 1005.71L280.42 955.71zM410.32 180.71L453.63 205.71L453.63 255.71L410.32 280.71L367.02 255.71L367.02 205.71zM367.02 255.71L410.32 280.71L410.32 330.71L367.02 355.71L323.72 330.71L323.72 280.71zM410.32 330.71L453.63 355.71L453.63 405.71L410.32 430.71L367.02 405.71L367.02 355.71zM410.32 480.71L453.63 505.71L453.63 555.71L410.32 580.71L367.02 555.71L367.02 505.71zM367.02 555.71L410.32 580.71L410.32 630.71L367.02 655.71L323.72 630.71L323.72 580.71zM410.32 630.71L453.63 655.71L453.63 705.71L410.32 730.71L367.02 705.71L367.02 655.71zM496.93 30.71L540.23 55.71L540.23 105.71L496.93 130.71L453.63 105.71L453.63 55.71zM453.63 105.71L496.93 130.71L496.93 180.71L453.63 205.71L410.32 180.71L410.32 130.71zM496.93 330.71L540.23 355.71L540.23 405.71L496.93 430.71L453.63 405.71L453.63 355.71zM453.63 555.71L496.93 580.71L496.93 630.71L453.63 655.71L410.32 630.71L410.32 580.71zM583.53 30.71L626.84 55.71L626.84 105.71L583.53 130.71L540.23 105.71L540.23 55.71zM540.23 405.71L583.53 430.71L583.53 480.71L540.23 505.71L496.93 480.71L496.93 430.71zM583.53 480.71L626.84 505.71L626.84 555.71L583.53 580.71L540.23 555.71L540.23 505.71zM540.23 555.71L583.53 580.71L583.53 630.71L540.23 655.71L496.93 630.71L496.93 580.71zM540.23 705.71L583.53 730.71L583.53 780.71L540.23 805.71L496.93 780.71L496.93 730.71zM583.53 780.71L626.84 805.71L626.84 855.71L583.53 880.71L540.23 855.71L540.23 805.71zM626.84 -44.29L670.14 -19.29L670.14 30.71L626.84 55.71L583.53 30.71L583.53 -19.29zM626.84 105.71L670.14 130.71L670.14 180.71L626.84 205.71L583.53 180.71L583.53 130.71zM670.14 330.71L713.44 355.71L713.44 405.71L670.14 430.71L626.84 405.71L626.84 355.71zM626.84 405.71L670.14 430.71L670.14 480.71L626.84 505.71L583.53 480.71L583.53 430.71zM670.14 630.71L713.44 655.71L713.44 705.71L670.14 730.71L626.84 705.71L626.84 655.71zM670.14 780.71L713.44 805.71L713.44 855.71L670.14 880.71L626.84 855.71L626.84 805.71zM626.84 855.71L670.14 880.71L670.14 930.71L626.84 955.71L583.53 930.71L583.53 880.71zM626.84 1005.71L670.14 1030.71L670.14 1080.71L626.84 1105.71L583.53 1080.71L583.53 1030.71zM713.44 105.71L756.74 130.71L756.74 180.71L713.44 205.71L670.14 180.71L670.14 130.71zM756.74 330.71L800.05 355.71L800.05 405.71L756.74 430.71L713.44 405.71L713.44 355.71zM756.74 630.71L800.05 655.71L800.05 705.71L756.74 730.71L713.44 705.71L713.44 655.71zM713.44 705.71L756.74 730.71L756.74 780.71L713.44 805.71L670.14 780.71L670.14 730.71zM713.44 855.71L756.74 880.71L756.74 930.71L713.44 955.71L670.14 930.71L670.14 880.71zM843.35 30.71L886.65 55.71L886.65 105.71L843.35 130.71L800.05 105.71L800.05 55.71zM800.05 105.71L843.35 130.71L843.35 180.71L800.05 205.71L756.74 180.71L756.74 130.71zM843.35 180.71L886.65 205.71L886.65 255.71L843.35 280.71L800.05 255.71L800.05 205.71zM800.05 255.71L843.35 280.71L843.35 330.71L800.05 355.71L756.74 330.71L756.74 280.71zM843.35 630.71L886.65 655.71L886.65 705.71L843.35 730.71L800.05 705.71L800.05 655.71zM800.05 855.71L843.35 880.71L843.35 930.71L800.05 955.71L756.74 930.71L756.74 880.71zM843.35 930.71L886.65 955.71L886.65 1005.71L843.35 1030.71L800.05 1005.71L800.05 955.71zM886.65 -44.29L929.95 -19.29L929.95 30.71L886.65 55.71L843.35 30.71L843.35 -19.29zM886.65 105.71L929.95 130.71L929.95 180.71L886.65 205.71L843.35 180.71L843.35 130.71zM886.65 255.71L929.95 280.71L929.95 330.71L886.65 355.71L843.35 330.71L843.35 280.71zM929.95 480.71L973.26 505.71L973.26 555.71L929.95 580.71L886.65 555.71L886.65 505.71zM886.65 555.71L929.95 580.71L929.95 630.71L886.65 655.71L843.35 630.71L843.35 580.71zM886.65 705.71L929.95 730.71L929.95 780.71L886.65 805.71L843.35 780.71L843.35 730.71zM886.65 855.71L929.95 880.71L929.95 930.71L886.65 955.71L843.35 930.71L843.35 880.71zM886.65 1005.71L929.95 1030.71L929.95 1080.71L886.65 1105.71L843.35 1080.71L843.35 1030.71zM1016.56 30.71L1059.86 55.71L1059.86 105.71L1016.56 130.71L973.26 105.71L973.26 55.71zM1016.56 180.71L1059.86 205.71L1059.86 255.71L1016.56 280.71L973.26 255.71L973.26 205.71zM973.26 255.71L1016.56 280.71L1016.56 330.71L973.26 355.71L929.95 330.71L929.95 280.71zM1016.56 330.71L1059.86 355.71L1059.86 405.71L1016.56 430.71L973.26 405.71L973.26 355.71zM973.26 405.71L1016.56 430.71L1016.56 480.71L973.26 505.71L929.95 480.71L929.95 430.71zM1016.56 480.71L1059.86 505.71L1059.86 555.71L1016.56 580.71L973.26 555.71L973.26 505.71zM973.26 555.71L1016.56 580.71L1016.56 630.71L973.26 655.71L929.95 630.71L929.95 580.71zM1016.56 780.71L1059.86 805.71L1059.86 855.71L1016.56 880.71L973.26 855.71L973.26 805.71zM973.26 855.71L1016.56 880.71L1016.56 930.71L973.26 955.71L929.95 930.71L929.95 880.71zM973.26 1005.71L1016.56 1030.71L1016.56 1080.71L973.26 1105.71L929.95 1080.71L929.95 1030.71zM1059.86 105.71L1103.16 130.71L1103.16 180.71L1059.86 205.71L1016.56 180.71L1016.56 130.71zM1103.16 180.71L1146.46 205.71L1146.46 255.71L1103.16 280.71L1059.86 255.71L1059.86 205.71zM1103.16 330.71L1146.46 355.71L1146.46 405.71L1103.16 430.71L1059.86 405.71L1059.86 355.71zM1059.86 405.71L1103.16 430.71L1103.16 480.71L1059.86 505.71L1016.56 480.71L1016.56 430.71zM1059.86 855.71L1103.16 880.71L1103.16 930.71L1059.86 955.71L1016.56 930.71L1016.56 880.71zM1103.16 930.71L1146.46 955.71L1146.46 1005.71L1103.16 1030.71L1059.86 1005.71L1059.86 955.71zM1146.46 105.71L1189.77 130.71L1189.77 180.71L1146.46 205.71L1103.16 180.71L1103.16 130.71zM1189.77 330.71L1233.07 355.71L1233.07 405.71L1189.77 430.71L1146.46 405.71L1146.46 355.71zM1146.46 405.71L1189.77 430.71L1189.77 480.71L1146.46 505.71L1103.16 480.71L1103.16 430.71zM1189.77 480.71L1233.07 505.71L1233.07 555.71L1189.77 580.71L1146.46 555.71L1146.46 505.71zM1189.77 630.71L1233.07 655.71L1233.07 705.71L1189.77 730.71L1146.46 705.71L1146.46 655.71zM1189.77 930.71L1233.07 955.71L1233.07 1005.71L1189.77 1030.71L1146.46 1005.71L1146.46 955.71zM1146.46 1005.71L1189.77 1030.71L1189.77 1080.71L1146.46 1105.71L1103.16 1080.71L1103.16 1030.71zM1233.07 105.71L1276.37 130.71L1276.37 180.71L1233.07 205.71L1189.77 180.71L1189.77 130.71zM1276.37 180.71L1319.67 205.71L1319.67 255.71L1276.37 280.71L1233.07 255.71L1233.07 205.71zM1233.07 405.71L1276.37 430.71L1276.37 480.71L1233.07 505.71L1189.77 480.71L1189.77 430.71zM1276.37 480.71L1319.67 505.71L1319.67 555.71L1276.37 580.71L1233.07 555.71L1233.07 505.71zM1233.07 555.71L1276.37 580.71L1276.37 630.71L1233.07 655.71L1189.77 630.71L1189.77 580.71zM1233.07 1005.71L1276.37 1030.71L1276.37 1080.71L1233.07 1105.71L1189.77 1080.71L1189.77 1030.71zM1362.98 30.71L1406.28 55.71L1406.28 105.71L1362.98 130.71L1319.67 105.71L1319.67 55.71zM1362.98 180.71L1406.28 205.71L1406.28 255.71L1362.98 280.71L1319.67 255.71L1319.67 205.71zM1362.98 330.71L1406.28 355.71L1406.28 405.71L1362.98 430.71L1319.67 405.71L1319.67 355.71zM1362.98 480.71L1406.28 505.71L1406.28 555.71L1362.98 580.71L1319.67 555.71L1319.67 505.71zM1362.98 630.71L1406.28 655.71L1406.28 705.71L1362.98 730.71L1319.67 705.71L1319.67 655.71zM1362.98 780.71L1406.28 805.71L1406.28 855.71L1362.98 880.71L1319.67 855.71L1319.67 805.71zM1319.67 855.71L1362.98 880.71L1362.98 930.71L1319.67 955.71L1276.37 930.71L1276.37 880.71zM1362.98 930.71L1406.28 955.71L1406.28 1005.71L1362.98 1030.71L1319.67 1005.71L1319.67 955.71zM1406.28 105.71L1449.58 130.71L1449.58 180.71L1406.28 205.71L1362.98 180.71L1362.98 130.71zM1449.58 180.71L1492.88 205.71L1492.88 255.71L1449.58 280.71L1406.28 255.71L1406.28 205.71zM1406.28 405.71L1449.58 430.71L1449.58 480.71L1406.28 505.71L1362.98 480.71L1362.98 430.71zM1406.28 555.71L1449.58 580.71L1449.58 630.71L1406.28 655.71L1362.98 630.71L1362.98 580.71zM1406.28 855.71L1449.58 880.71L1449.58 930.71L1406.28 955.71L1362.98 930.71L1362.98 880.71zM1449.58 930.71L1492.88 955.71L1492.88 1005.71L1449.58 1030.71L1406.28 1005.71L1406.28 955.71zM1406.28 1005.71L1449.58 1030.71L1449.58 1080.71L1406.28 1105.71L1362.98 1080.71L1362.98 1030.71zM1536.19 30.71L1579.49 55.71L1579.49 105.71L1536.19 130.71L1492.88 105.71L1492.88 55.71zM1536.19 330.71L1579.49 355.71L1579.49 405.71L1536.19 430.71L1492.88 405.71L1492.88 355.71zM1492.88 405.71L1536.19 430.71L1536.19 480.71L1492.88 505.71L1449.58 480.71L1449.58 430.71zM1536.19 480.71L1579.49 505.71L1579.49 555.71L1536.19 580.71L1492.88 555.71L1492.88 505.71zM1536.19 930.71L1579.49 955.71L1579.49 1005.71L1536.19 1030.71L1492.88 1005.71L1492.88 955.71zM1579.49 -44.29L1622.79 -19.29L1622.79 30.71L1579.49 55.71L1536.19 30.71L1536.19 -19.29zM1579.49 105.71L1622.79 130.71L1622.79 180.71L1579.49 205.71L1536.19 180.71L1536.19 130.71zM1579.49 255.71L1622.79 280.71L1622.79 330.71L1579.49 355.71L1536.19 330.71L1536.19 280.71zM1622.79 330.71L1666.1 355.71L1666.1 405.71L1622.79 430.71L1579.49 405.71L1579.49 355.71zM1579.49 555.71L1622.79 580.71L1622.79 630.71L1579.49 655.71L1536.19 630.71L1536.19 580.71zM1579.49 855.71L1622.79 880.71L1622.79 930.71L1579.49 955.71L1536.19 930.71L1536.19 880.71zM1579.49 1005.71L1622.79 1030.71L1622.79 1080.71L1579.49 1105.71L1536.19 1080.71L1536.19 1030.71zM1666.1 255.71L1709.4 280.71L1709.4 330.71L1666.1 355.71L1622.79 330.71L1622.79 280.71zM1709.4 480.71L1752.7 505.71L1752.7 555.71L1709.4 580.71L1666.1 555.71L1666.1 505.71zM1709.4 630.71L1752.7 655.71L1752.7 705.71L1709.4 730.71L1666.1 705.71L1666.1 655.71zM1666.1 705.71L1709.4 730.71L1709.4 780.71L1666.1 805.71L1622.79 780.71L1622.79 730.71zM1666.1 855.71L1709.4 880.71L1709.4 930.71L1666.1 955.71L1622.79 930.71L1622.79 880.71zM1666.1 1005.71L1709.4 1030.71L1709.4 1080.71L1666.1 1105.71L1622.79 1080.71L1622.79 1030.71zM1752.7 -44.29L1796 -19.29L1796 30.71L1752.7 55.71L1709.4 30.71L1709.4 -19.29zM1752.7 105.71L1796 130.71L1796 180.71L1752.7 205.71L1709.4 180.71L1709.4 130.71zM1752.7 255.71L1796 280.71L1796 330.71L1752.7 355.71L1709.4 330.71L1709.4 280.71zM1752.7 405.71L1796 430.71L1796 480.71L1752.7 505.71L1709.4 480.71L1709.4 430.71zM1796 480.71L1839.31 505.71L1839.31 555.71L1796 580.71L1752.7 555.71L1752.7 505.71zM1796 780.71L1839.31 805.71L1839.31 855.71L1796 880.71L1752.7 855.71L1752.7 805.71zM1752.7 855.71L1796 880.71L1796 930.71L1752.7 955.71L1709.4 930.71L1709.4 880.71zM1752.7 1005.71L1796 1030.71L1796 1080.71L1752.7 1105.71L1709.4 1080.71L1709.4 1030.71zM1882.61 30.71L1925.91 55.71L1925.91 105.71L1882.61 130.71L1839.31 105.71L1839.31 55.71zM1882.61 330.71L1925.91 355.71L1925.91 405.71L1882.61 430.71L1839.31 405.71L1839.31 355.71zM1839.31 405.71L1882.61 430.71L1882.61 480.71L1839.31 505.71L1796 480.71L1796 430.71zM1882.61 480.71L1925.91 505.71L1925.91 555.71L1882.61 580.71L1839.31 555.71L1839.31 505.71zM1882.61 630.71L1925.91 655.71L1925.91 705.71L1882.61 730.71L1839.31 705.71L1839.31 655.71zM1839.31 705.71L1882.61 730.71L1882.61 780.71L1839.31 805.71L1796 780.71L1796 730.71zM1882.61 780.71L1925.91 805.71L1925.91 855.71L1882.61 880.71L1839.31 855.71L1839.31 805.71zM1839.31 855.71L1882.61 880.71L1882.61 930.71L1839.31 955.71L1796 930.71L1796 880.71zM1839.31 1005.71L1882.61 1030.71L1882.61 1080.71L1839.31 1105.71L1796 1080.71L1796 1030.71zM1925.91 255.71L1969.21 280.71L1969.21 330.71L1925.91 355.71L1882.61 330.71L1882.61 280.71zM1925.91 405.71L1969.21 430.71L1969.21 480.71L1925.91 505.71L1882.61 480.71L1882.61 430.71zM1969.21 480.71L2012.52 505.71L2012.52 555.71L1969.21 580.71L1925.91 555.71L1925.91 505.71zM1925.91 555.71L1969.21 580.71L1969.21 630.71L1925.91 655.71L1882.61 630.71L1882.61 580.71zM1969.21 630.71L2012.52 655.71L2012.52 705.71L1969.21 730.71L1925.91 705.71L1925.91 655.71zM1969.21 780.71L2012.52 805.71L2012.52 855.71L1969.21 880.71L1925.91 855.71L1925.91 805.71zM1969.21 930.71L2012.52 955.71L2012.52 1005.71L1969.21 1030.71L1925.91 1005.71L1925.91 955.71zM1925.91 1005.71L1969.21 1030.71L1969.21 1080.71L1925.91 1105.71L1882.61 1080.71L1882.61 1030.71z" stroke="url(#SvgjsLinearGradient6048)" stroke-width="2"></path></g><defs><mask id="SvgjsMask6045"><rect width="1920" height="1080" fill="#ffffff"></rect></mask><linearGradient x1="50%" y1="100%" x2="50%" y2="0%" gradientUnits="userSpaceOnUse" id="SvgjsLinearGradient6046"><stop stop-color="rgba(10, 67, 71, 1)" offset="0"></stop><stop stop-color="rgba(0, 0, 0, 1)" offset="1"></stop></linearGradient><linearGradient x1="960" y1="0" x2="960" y2="1080" gradientUnits="userSpaceOnUse" id="SvgjsLinearGradient6047"><stop stop-color="rgba(64, 181, 135, 0.14)" offset="0"></stop><stop stop-color="rgba(64, 181, 135, 1)" offset="1"></stop></linearGradient><linearGradient x1="210.048" y1="-209.95200000000003" x2="1709.9520000000002" y2="1289.952" gradientUnits="userSpaceOnUse" id="SvgjsLinearGradient6048"><stop stop-color="#0e2a47" offset="0"></stop><stop stop-color="rgba(27, 163, 156, 1)" offset="1"></stop></linearGradient></defs></svg>